# xmcd
#
# Track frame offsets: 
#        150
#        1420
#        16055
#        27072
#        44715
#        61172
#        72287
#        87230
#        99392
#        109715
#        122700
#        134265
#        148980
#        161307
#        173927
#        184167
#        195252
#        208565
#        222540
#        232790
#        242737
#        253822
#        265685
#        277710
#        292915
#        308575
#
# Disc length: 4280 seconds
#
# Revision: 2
# Processed by: cddbd v1.5.2PL0 Copyright (c) Steve Scherf et al.
# Submitted via: ExactAudioCopy v1.3
#
DISCID=6310b61a
DTITLE=Jim and Jesse - The Old Dominion Masters_CD4
DYEAR=1998
DGENRE=Bluegrass
TTITLE0=Intro
TTITLE1=Heartbreak Mountain
TTITLE2=When I Stop Dreamng
TTITLE3=Ole Slew Foot
TTITLE4=El Cumbanchero
TTITLE5=Better Times A'Coming
TTITLE6=Lee Highway Blues
TTITLE7=Knoxville Girl
TTITLE8=She Left Me Standing On The Mountain
TTITLE9=Childish Love
TTITLE10=Goish, I Miss You All The Time
TTITLE11=Border Ride
TTITLE12=I Wonder Where You Are Tonight
TTITLE13=Westphalia Waltz
TTITLE14=Dixie Hoedown
TTITLE15=I Don't Believe You've Me My Baby
TTITLE16=Paradise
TTITLE17=I Wish You Knew
TTITLE18=Heartaches And Flowers
TTITLE19=Far From You
TTITLE20=I'm Sorry, That's All I Can Say
TTITLE21=I've Been Everywhere But Crazy
TTITLE22=Break My Heart Again
TTITLE23=Maple Sugar
TTITLE24=Be Good To Her
TTITLE25=Diesel Train
EXTD=
EXTT0=
EXTT1=
EXTT2=
EXTT3=
EXTT4=
EXTT5=
EXTT6=
EXTT7=
EXTT8=
EXTT9=
EXTT10=
EXTT11=
EXTT12=
EXTT13=
EXTT14=
EXTT15=
EXTT16=
EXTT17=
EXTT18=
EXTT19=
EXTT20=
EXTT21=
EXTT22=
EXTT23=
EXTT24=
EXTT25=
PLAYORDER=
